<?xml version="1.0" standalone="no"?><!DOCTYPE svg PUBLIC "-//W3C//DTD SVG 1.1//EN" "http://www.w3.org/Graphics/SVG/1.1/DTD/svg11.dtd"><svg t="1566283049987" class="icon" viewBox="0 0 1024 1024" version="1.1" xmlns="http://www.w3.org/2000/svg" p-id="7674" xmlns:xlink="http://www.w3.org/1999/xlink" width="200" height="200"><defs><style type="text/css"></style></defs><path d="M179.2 829.44H0V286.72h829.44v542.72H281.6v92.16h640V102.4H281.6v104.448H179.2V102.4C179.2 46.08 225.28 0 281.6 0h640c56.32 0 102.4 46.08 102.4 102.4v819.2c0 56.32-46.08 102.4-102.4 102.4H281.6c-56.32 0-102.4-46.08-102.4-102.4v-92.16z m-122.88-230.912c2.048 24.064 10.752 43.52 26.112 59.392 15.36 15.36 43.008 23.552 82.432 23.552 22.528 0 41.472-3.072 56.32-9.728 14.848-6.656 26.624-16.384 34.816-29.184 8.192-12.8 12.288-27.136 12.288-41.984 0-12.8-3.072-24.576-9.216-35.328-6.144-10.24-16.384-19.456-29.696-26.112-13.824-7.168-36.352-13.824-68.096-20.992-12.8-2.56-20.992-5.632-24.064-8.704-3.584-3.072-5.12-6.656-5.12-10.24 0-5.12 2.048-9.728 6.144-13.312 4.096-3.584 10.752-5.632 18.944-5.632 10.24 0 18.432 2.56 24.064 7.168 5.632 4.608 9.728 12.8 11.264 23.552l68.608-5.12c-3.072-24.576-12.288-42.496-28.16-53.76S194.56 435.2 164.352 435.2c-24.576 0-43.52 3.072-57.344 9.216-13.824 6.144-24.576 14.848-31.232 25.6s-10.24 22.528-10.24 34.816c0 18.432 6.656 33.792 20.48 46.08 13.312 11.776 36.352 21.504 67.584 28.672 19.456 4.096 31.744 8.704 36.864 13.824 5.12 4.608 8.192 10.24 8.192 16.384 0 6.656-2.56 12.288-8.192 16.896-5.632 5.12-13.312 7.168-24.064 7.168-13.824 0-24.576-4.608-31.744-14.336-4.608-6.144-7.68-14.336-9.216-26.112l-69.12 5.12z m223.232-159.232l88.576 237.568h78.336l87.04-237.568H459.776l-51.712 171.008-52.736-171.008H279.552z m381.952 151.552h48.128v22.528c-9.216 5.632-17.92 9.728-25.088 12.288-7.168 2.56-14.848 3.584-23.04 3.584-16.896 0-30.208-5.632-39.936-16.384s-14.336-29.184-14.336-55.296c0-24.064 4.608-41.984 14.336-53.248 9.216-11.264 22.016-16.896 37.888-16.896 10.752 0 19.456 2.56 26.112 7.168 6.656 4.608 11.776 11.776 14.848 20.48l69.632-12.8c-4.096-15.36-10.752-28.16-18.944-37.888-8.704-10.24-18.944-17.408-31.744-22.016-12.8-4.608-32.256-7.168-57.856-7.168-26.624 0-48.128 3.584-64 11.264-20.48 9.728-35.84 24.576-46.08 43.52-10.752 18.944-15.872 41.984-15.872 67.584 0 24.576 4.608 46.592 14.336 65.536s23.04 33.28 40.448 43.008c17.408 9.728 39.936 14.336 68.096 14.336 22.528 0 41.984-2.56 58.368-8.192 16.384-5.12 35.328-15.36 56.832-30.208v-101.376h-111.616v50.176z" fill="#6F8FDF" p-id="7675"></path></svg>